<svg viewBox="0 0 1363.1 192.7" xmlns="http://www.w3.org/2000/svg"><defs><clipPath id="a"><path d="m159 0.79h25v68.21h-25z"/></clipPath><clipPath id="b"><path d="m183 9h35.371v60h-35.371z"/></clipPath><clipPath id="c"><path d="m0 0.79h92v91.21h-92z"/></clipPath></defs><g transform="translate(403.93 -98.049)"><path d="m336.62 102.76c-49.074 0-88.745 39.964-88.745 89.405 0 39.521 25.419 72.974 60.681 84.814 4.4087 0.8901 6.0236-1.9237 6.0236-4.2907 0-2.0727-0.14532-9.1772-0.14532-16.58-24.687 5.3297-29.828-10.658-29.828-10.658-3.9673-10.362-9.8456-13.025-9.8456-13.025-8.08-5.4769 0.58856-5.4769 0.58856-5.4769 8.9628 0.59219 13.666 9.1772 13.666 9.1772 7.9328 13.617 20.716 9.7693 25.858 7.4006 0.73388-5.773 3.0863-9.7693 5.584-11.989-19.689-2.0727-40.405-9.7693-40.405-44.111 0-9.7693 3.5241-17.762 9.1081-23.978-0.88102-2.2198-3.9673-11.399 0.88284-23.684 0 0 7.4932-2.3688 24.389 9.1772a85.323 85.323 0 0 1 22.187-2.961c7.4932 0 15.132 1.0372 22.185 2.961 16.897-11.546 24.391-9.1772 24.391-9.1772 4.8502 12.285 1.762 21.464 0.88102 23.684 5.7312 6.2162 9.1099 14.209 9.1099 23.978 0 34.342-20.716 41.889-40.552 44.111 3.2334 2.812 6.0236 8.1399 6.0236 16.578 0 11.989-0.14533 21.611-0.14533 24.57 0 2.3688 1.6167 5.1826 6.0236 4.2943 35.263-11.844 60.681-45.295 60.681-84.816 0.14533-49.441-39.671-89.405-88.598-89.405z" clip-rule="evenodd" fill="#fff" fill-rule="evenodd" style="stroke-width:1.8165"/><circle cx="11.026" cy="-475.07" r="1.7919" style="fill:#fff;stroke:#000"/></g><g transform="matrix(2.1127 0 0 2.1127 0 -1.669)"><path d="m130.87 31.836c-4.785 0-8.351 2.352-8.351 8.008 0 4.261 2.347 7.222 8.093 7.222 4.871 0 8.18-2.867 8.18-7.398 0-5.133-2.961-7.832-7.922-7.832zm-9.57 39.95c-1.133 1.39-2.262 2.87-2.262 4.612 0 3.48 4.434 4.524 10.527 4.524 5.051 0 11.926-0.352 11.926-5.043 0-2.793-3.308-2.965-7.488-3.227zm25.761-39.688c1.563 2.004 3.22 4.789 3.22 8.793 0 9.656-7.571 15.316-18.536 15.316-2.789 0-5.312-0.348-6.879-0.785l-2.87 4.613 8.526 0.52c15.059 0.96 23.934 1.398 23.934 12.968 0 10.008-8.789 15.665-23.934 15.665-15.75 0-21.757-4.004-21.757-10.88 0-3.917 1.742-6 4.789-8.878-2.875-1.211-3.828-3.387-3.828-5.739 0-1.914 0.953-3.656 2.523-5.312 1.566-1.652 3.305-3.305 5.395-5.219-4.262-2.09-7.485-6.617-7.485-13.058 0-10.008 6.613-16.88 19.93-16.88 3.742 0 6.004 0.344 8.008 0.872h16.972v7.394l-8.007 0.61" style="fill:#fff"/><g clip-path="url(#a)"><path d="m170.38 16.281c-4.961 0-7.832-2.87-7.832-7.836 0-4.957 2.871-7.656 7.832-7.656 5.05 0 7.922 2.7 7.922 7.656 0 4.965-2.871 7.836-7.922 7.836zm-11.227 52.305v-6.876l4.438-0.606c1.219-0.175 1.394-0.437 1.394-1.746v-25.585c0-0.953-0.261-1.566-1.132-1.824l-4.7-1.656 0.957-7.047h18.016v36.114c0 1.399 0.086 1.57 1.395 1.746l4.437 0.606v6.875h-24.805" style="fill:#fff"/></g><g clip-path="url(#b)"><path d="m218.37 65.21c-3.742 1.825-9.223 3.481-14.187 3.481-10.356 0-14.27-4.175-14.27-14.015v-22.797c0-0.524 0-0.871-0.7-0.871h-6.093v-7.746c7.664-0.871 10.707-4.703 11.664-14.188h8.27v12.36c0 0.609 0 0.87 0.695 0.87h12.27v8.704h-12.965v20.797c0 5.136 1.218 7.136 5.918 7.136 2.437 0 4.96-0.609 7.047-1.39l2.351 7.66" style="fill:#fff"/></g><g clip-path="url(#c)"><path d="m89.422 42.371-39.793-39.789a5.868 5.868 0 0 0-8.3 0l-8.263 8.262 10.48 10.484a6.965 6.965 0 0 1 7.173 1.668 6.98 6.98 0 0 1 1.656 7.215l10.102 10.105a6.963 6.963 0 0 1 7.214 1.657 6.976 6.976 0 0 1 0 9.875 6.98 6.98 0 0 1-9.879 0 6.987 6.987 0 0 1-1.519-7.594l-9.422-9.422v24.793a6.979 6.979 0 0 1 1.848 1.32 6.988 6.988 0 0 1 0 9.88c-2.73 2.726-7.153 2.726-9.875 0a6.98 6.98 0 0 1 0-9.88 6.893 6.893 0 0 1 2.285-1.523v-25.024a6.893 6.893 0 0 1-2.285-1.523 6.988 6.988 0 0 1-1.508-7.637l-10.332-10.336-27.285 27.285a5.868 5.868 0 0 0 0 8.301l39.793 39.793a5.868 5.868 0 0 0 8.3 0l39.61-39.605a5.873 5.873 0 0 0 0-8.305" style="fill:#fff"/></g></g><text x="492.15573" y="150.3389" style="fill:#ffffff;font-family:'Hack Nerd Font';font-size:192px;line-height:1.25" xml:space="preserve"><tspan x="492.15573" y="150.3389">≠</tspan></text><path d="m949.77 81.802h-43.061c-1.1108 0-2.0124 0.9027-2.0124 2.0135v21.053c0 1.1108 0.90163 2.0145 2.0124 2.0145h16.798v26.157s-3.7719 1.2858-14.2 1.2858c-12.303 0-29.489-4.4954-29.489-42.287 0-37.8 17.896-42.774 34.697-42.774 14.543 0 20.809 2.5608 24.795 3.7943 1.2527 0.38413 2.4115-0.86322 2.4115-1.975l4.8037-20.342c0-0.51964-0.17606-1.146-0.76932-1.5717-1.6187-1.1545-11.496-6.6817-36.449-6.6817-28.747 0-58.234 12.23-58.234 71.023 0 58.795 33.761 67.556 62.209 67.556 23.556 0 37.845-10.066 37.845-10.066 0.58899-0.32544 0.65301-1.1481 0.65301-1.5258v-65.661c0-1.1108-0.90056-2.0135-2.0113-2.0135zm221.8-51.953c0-1.1204-0.8878-2.0241-1.9985-2.0241h-24.246c-1.1076 0-2.0082 0.90376-2.0082 2.0241 0 5e-3 0.01 46.856 0.01 46.856h-37.792v-46.856c0-1.1204-0.892-2.0241-2.0006-2.0241h-24.245c-1.1033 0-2.0028 0.90376-2.0028 2.0241v126.87c0 1.1193 0.8995 2.0305 2.0028 2.0305h24.245c1.1086 0 2.0006-0.91124 2.0006-2.0305v-54.268h37.793s-0.066 54.263-0.066 54.268c0 1.1193 0.8995 2.0305 2.0082 2.0305h24.304c1.1107 0 1.9985-0.91124 2.0006-2.0305zm-176.12 16.962c0-8.7304-6.9996-15.785-15.635-15.785-8.6269 0-15.632 7.0551-15.632 15.785 0 8.7208 7.005 15.795 15.632 15.795 8.6354 0 15.635-7.0743 15.635-15.795zm-1.9238 83.213v-58.564c0-1.1118-0.89737-2.0209-2.006-2.0209h-24.169c-1.1086 0-2.101 1.1438-2.101 2.2557v83.905c0 2.4659 1.5365 3.1989 3.5254 3.1989h21.776c2.3891 0 2.9749-1.1727 2.9749-3.2384zm270.71-60.585h-24.06c-1.1033 0-2.0018 0.9091-2.0018 2.0284v62.209s-6.1118 4.4719-14.788 4.4719c-8.6749 0-10.978-3.9362-10.978-12.431v-54.25c0-1.1193-0.8963-2.0284-2.0007-2.0284h-24.419c-1.1022 0-2.0049 0.9091-2.0049 2.0284v58.359c0 25.231 14.062 31.403 33.407 31.403 15.87 0 28.666-8.7677 28.666-8.7677s0.6093 4.6202 0.8845 5.1686c0.2764 0.54632 0.9945 1.098 1.7702 1.098l15.535-0.0683c1.1022 0 2.0049-0.91124 2.0049-2.0252l-0.01-85.167c0-1.1193-0.8995-2.0284-2.0081-2.0284zm55.435 68.758c-8.3452-0.25395-14.006-4.0408-14.006-4.0408v-40.178s5.5848-3.423 12.436-4.0355c8.6642-0.77572 17.013 1.8417 17.013 22.51 0 21.795-3.7677 26.096-15.443 25.744zm9.4901-71.483c-13.665 0-22.96 6.097-22.96 6.097v-42.961c0-1.1204-0.8952-2.0241-2.0006-2.0241h-24.314c-1.1054 0-2.0039 0.90376-2.0039 2.0241v126.87c0 1.1193 0.8985 2.0305 2.0071 2.0305h16.87c0.7597 0 1.3348-0.3916 1.7595-1.0777 0.4193-0.68183 1.0243-5.8494 1.0243-5.8494s9.9425 9.4218 28.764 9.4218c22.096 0 34.768-11.208 34.768-50.315 0-39.107-20.238-44.217-33.913-44.217zm-265.86 2.5075h-18.187s-0.028-24.022-0.028-24.027c0-0.9091-0.4685-1.3636-1.5195-1.3636h-24.785c-0.9635 0-1.481 0.4236-1.481 1.3498v24.83s-12.42 2.9983-13.26 3.2405c-0.8365 0.24221-1.4522 1.0137-1.4522 1.9334v15.603c0 1.1225 0.8963 2.0273 2.0049 2.0273h12.707v37.536c0 27.88 19.556 30.619 32.753 30.619 6.0297 0 13.243-1.9366 14.434-2.3763 0.7202-0.26462 1.1385-1.0105 1.1385-1.8193l0.02-17.164c0-1.1193-0.9454-2.0252-2.0103-2.0252-1.0595 0-3.7708 0.43107-6.5621 0.43107-8.9331 0-11.96-4.1539-11.96-9.5306 0-5.3724-1e-3 -35.67-1e-3 -35.67h18.188c1.1086 0 2.006-0.90483 2.006-2.0273v-19.544c0-1.1193-0.8974-2.022-2.006-2.022z" fill="#11110f" style="fill:#fff"/></svg>
