<svg viewBox="0 0 1391.3 512" xmlns="http://www.w3.org/2000/svg"><path d="m9.375 233.4c-6 6-9.375 14.1-9.375 22.6v128c0 8.5 3.375 16.62 9.375 22.62s14.125 9.38 22.625 9.38h32v-192h-32c-8.5 0-16.62 3.4-22.625 9.4zm454.62-137.4h-112v-64c0-17.62-14.38-32-32-32s-32 14.38-32 32v64h-112c-44.2 0-80 35.8-80 80v272c0 35.38 28.62 64 64 64h320c35.38 0 64-28.62 64-64v-272c0-44.2-35.7-80-80-80zm-208 320h-64v-32h64zm-32-120c-22.1 0-40-17.9-40-40s17.9-40 40-40 40 17.9 40 40-17.9 40-40 40zm128 120h-64v-32h64zm96 0h-64v-32h64zm-32-120c-22.12 0-40-17.88-40-40s17.9-40 40-40 40 17.9 40 40-17.9 40-40 40zm214.6-62.6c-6-6-14.1-9.4-22.6-9.4h-32v192h32c8.5 0 16.62-3.375 22.62-9.375s9.38-14.125 9.38-22.625v-128c0-8.5-3.4-16.6-9.4-22.6z" style="fill:#fff"/><path d="m1013.4 67.881-6.7471 8.7712-25.639 34.41h-21.591v-21.591h-86.363v21.591h-43.181v388.63h561.36v-388.63h-151.13l-25.639-34.41-6.7471-8.7712zm21.591 43.181h151.13l25.639 34.41 6.7471 8.7712h129.54v86.363h-125.5c-22.518-38.543-64.35-64.772-112-64.772s-89.483 26.229-112 64.772h-125.5v-86.363h129.54l6.7471-8.7712zm226.7 64.772v43.181h43.181v-43.181zm-151.13 43.181c47.988 0 86.363 38.374 86.363 86.363 0 47.989-38.374 86.363-86.363 86.363-47.989 0-86.363-38.374-86.363-86.363 0-47.989 38.374-86.363 86.363-86.363zm-237.5 64.772h109.98c-1.181 6.9157-2.0231 14.338-2.0231 21.591 0 71.266 58.278 129.54 129.54 129.54s129.54-58.278 129.54-129.54c0-7.2532-0.8442-14.675-2.0231-21.591h109.98v172.73h-474.99z" style="fill:#fff;stroke-width:21.591"/></svg>
